<svg width="14" height="14" viewBox="0 0 14 14" fill="none" xmlns="http://www.w3.org/2000/svg">
<path d="M7 0C3.14031 0 0 3.14004 0 7C0 10.86 3.14031 14 7 14C10.8597 14 14 10.86 14 7C14 3.14004 10.8597 0 7 0ZM7 13.4615C3.43727 13.4615 0.538462 10.5627 0.538462 7C0.538462 3.43727 3.43727 0.538462 7 0.538462C10.5627 0.538462 13.4615 3.43727 13.4615 7C13.4615 10.5627 10.5627 13.4615 7 13.4615Z" fill="#FF008E"/>
<path d="M6.99994 2.69226C6.85133 2.69226 6.73071 2.81261 6.73071 2.96149V8.88457C6.73071 9.03345 6.85133 9.1538 6.99994 9.1538C7.14856 9.1538 7.26917 9.03345 7.26917 8.88457V2.96149C7.26917 2.81261 7.14856 2.69226 6.99994 2.69226Z" fill="#FF008E"/>
<path d="M6.99994 9.96155C6.85133 9.96155 6.73071 10.0819 6.73071 10.2308V10.7692C6.73071 10.9181 6.85133 11.0385 6.99994 11.0385C7.14856 11.0385 7.26917 10.9181 7.26917 10.7692V10.2308C7.26917 10.0819 7.14856 9.96155 6.99994 9.96155Z" fill="#FF008E"/>
</svg>
